<?xml version="1.0" encoding="UTF-8"?><svg id="uuid-9271e6fd-cc77-411d-9b83-267efcf98e09" xmlns="http://www.w3.org/2000/svg" viewBox="0 0 201.33 57.83"><defs><style>.uuid-ebbf556b-647b-4778-836b-24bbc44343c0{fill:#fff;}.uuid-e80b8eb7-62d7-468f-a101-cd8fe71746df{fill:#0f8ba6;}</style></defs><g><circle class="uuid-e80b8eb7-62d7-468f-a101-cd8fe71746df" cx="27.9" cy="28.98" r="26.57"/><g><path class="uuid-ebbf556b-647b-4778-836b-24bbc44343c0" d="m27.83,50.11c-11.65,0-21.12-9.48-21.12-21.12S16.18,7.86,27.83,7.86s21.12,9.48,21.12,21.12-9.48,21.12-21.12,21.12Zm0-41.11c-11.02,0-19.99,8.97-19.99,19.99s8.97,19.99,19.99,19.99,19.99-8.97,19.99-19.99-8.97-19.99-19.99-19.99Z"/><polygon class="uuid-ebbf556b-647b-4778-836b-24bbc44343c0" points="24.74 48.81 23.61 48.81 23.61 24.28 8 24.28 8 23.15 24.74 23.15 24.74 48.81"/><rect class="uuid-ebbf556b-647b-4778-836b-24bbc44343c0" x="27.21" y="33.82" width="1.13" height="15.48"/><polygon class="uuid-ebbf556b-647b-4778-836b-24bbc44343c0" points="31.97 48.81 30.84 48.81 30.84 23.15 47.5 23.15 47.5 24.28 31.97 24.28 31.97 48.81"/><rect class="uuid-ebbf556b-647b-4778-836b-24bbc44343c0" x="8.95" y="19.96" width="37.7" height="1.13"/><path class="uuid-ebbf556b-647b-4778-836b-24bbc44343c0" d="m27.9,19.03c-1.86,0-3.38-1.52-3.38-3.38s1.52-3.38,3.38-3.38,3.38,1.52,3.38,3.38-1.52,3.38-3.38,3.38Zm0-5.63c-1.24,0-2.25,1.01-2.25,2.25s1.01,2.25,2.25,2.25,2.25-1.01,2.25-2.25-1.01-2.25-2.25-2.25Z"/><rect class="uuid-ebbf556b-647b-4778-836b-24bbc44343c0" x="11.13" y="36.92" width="14.77" height="1.13" transform="translate(-19.75 20.65) rotate(-39.96)"/><rect class="uuid-ebbf556b-647b-4778-836b-24bbc44343c0" x="13.51" y="40.76" width="12.05" height="1.13" transform="translate(-21.86 21.94) rotate(-39.61)"/><rect class="uuid-ebbf556b-647b-4778-836b-24bbc44343c0" x="36.54" y="30.1" width="1.13" height="14.77" transform="translate(-15.46 41.85) rotate(-50.04)"/><rect class="uuid-ebbf556b-647b-4778-836b-24bbc44343c0" x="35.52" y="35.3" width="1.13" height="12.05" transform="translate(-18.76 42.77) rotate(-50.39)"/><rect class="uuid-ebbf556b-647b-4778-836b-24bbc44343c0" x="28.47" y="15.49" width="12.36" height="1.13" transform="translate(-1.07 29.58) rotate(-45.61)"/><rect class="uuid-ebbf556b-647b-4778-836b-24bbc44343c0" x="33.37" y="16.69" width="9.38" height="1.13" transform="translate(-1.2 31.58) rotate(-44.43)"/><rect class="uuid-ebbf556b-647b-4778-836b-24bbc44343c0" x="20.81" y="9.88" width="1.13" height="12.36" transform="translate(-5.13 19.54) rotate(-44.39)"/><rect class="uuid-ebbf556b-647b-4778-836b-24bbc44343c0" x="17.4" y="12.57" width="1.13" height="9.38" transform="translate(-6.94 18) rotate(-45.56)"/><path class="uuid-ebbf556b-647b-4778-836b-24bbc44343c0" d="m18.97,30.11H7.84c-.35,0-.63-.28-.63-.63s.28-.63.63-.63h11.13c.35,0,.63.28.63.63s-.28.63-.63.63Z"/><path class="uuid-ebbf556b-647b-4778-836b-24bbc44343c0" d="m14.53,33.46h-6.69c-.35,0-.63-.28-.63-.63s.28-.63.63-.63h6.69c.35,0,.63.28.63.63s-.28.63-.63.63Z"/><path class="uuid-ebbf556b-647b-4778-836b-24bbc44343c0" d="m47.92,30.11h-11.13c-.35,0-.63-.28-.63-.63s.28-.63.63-.63h11.13c.35,0,.63.28.63.63s-.28.63-.63.63Z"/><path class="uuid-ebbf556b-647b-4778-836b-24bbc44343c0" d="m47.92,33.46h-6.69c-.35,0-.63-.28-.63-.63s.28-.63.63-.63h6.69c.35,0,.63.28.63.63s-.28.63-.63.63Z"/></g></g><g><path class="uuid-ebbf556b-647b-4778-836b-24bbc44343c0" d="m71.15,19.44v-1.89l-.77-.05v-.93h2.77v.89l-.32.04c-.2.02-.3.11-.3.35v2.28c-.67.46-1.67.74-2.7.74-2.3,0-3.59-1.32-3.59-4.08,0-3.07,1.81-4.12,3.87-4.12.95,0,1.87.21,2.39.48v1.89l-1.15.08v-.82c0-.2-.02-.3-.21-.36-.21-.06-.62-.1-.96-.1-1.68,0-2.43,1.11-2.43,2.87,0,1.89.63,3.01,2.13,3.01.45,0,1-.12,1.29-.29Z"/><path class="uuid-ebbf556b-647b-4778-836b-24bbc44343c0" d="m74.72,13.79l-.63-.04v-.94h2.75v.9l-.37.04c-.21.02-.3.1-.3.36v5.64l.63.04v.94h-2.75v-.9l.36-.04c.21-.02.31-.08.31-.38v-5.62Z"/><path class="uuid-ebbf556b-647b-4778-836b-24bbc44343c0" d="m84.79,20.72h-1.38l-3.5-5.75h-.02v4.77l.65.04v.94h-2.7v-.89l.38-.05c.2-.02.29-.08.29-.33v-5.66l-.62-.04v-.94h2.11l3.4,5.65h.02v-4.68l-.65-.04v-.94h2.69v.9l-.37.04c-.23.04-.3.1-.3.36v6.62Z"/><path class="uuid-ebbf556b-647b-4778-836b-24bbc44343c0" d="m86,20.72v-.89l.29-.04c.27-.04.33-.17.4-.37l1.93-5.61-.62-.07v-.94h2.59l2.46,6.93.61.05v.94h-2.83v-.89l.39-.05c.23-.02.3-.13.21-.37l-.33-.94h-2.71l-.43,1.27.61.04v.94h-2.57Zm4.55-10.79l.45.37c.17.12.25.25.25.43,0,.24-.17.43-.49.59l-1.79.96-.36-.49,1.93-1.87Zm-1.92,7.55h2.24l-1.1-3.37h-.04l-1.11,3.37Z"/><path class="uuid-ebbf556b-647b-4778-836b-24bbc44343c0" d="m98.18,18.53c0-.77-.65-1.04-1.5-1.26-1.1-.3-2.26-.75-2.26-2.27s1.11-2.33,2.78-2.33c.75,0,1.63.14,2.23.43v1.87l-1.15.08v-.77c0-.2-.02-.3-.21-.36-.18-.05-.57-.1-.84-.1-.64,0-1.29.23-1.29,1.01s.64.99,1.56,1.27c1.1.35,2.23.75,2.23,2.31s-1.06,2.45-2.95,2.45c-.82,0-1.71-.11-2.36-.4v-1.93l1.15-.1v.81c0,.2.04.3.21.36.19.06.61.11.94.11.77,0,1.46-.25,1.46-1.18Z"/><path class="uuid-ebbf556b-647b-4778-836b-24bbc44343c0" d="m101.34,13.79l-.63-.04v-.94h2.75v.9l-.37.04c-.21.02-.3.1-.3.36v5.64l.63.04v.94h-2.75v-.9l.36-.04c.21-.02.31-.08.31-.38v-5.62Z"/><path class="uuid-ebbf556b-647b-4778-836b-24bbc44343c0" d="m107.89,20.88c-2.13,0-3.4-1.39-3.4-4.09,0-3.06,1.84-4.12,3.55-4.12,1.79,0,3.33,1.08,3.33,4.12,0,2.71-1.36,4.09-3.47,4.09Zm.09-1.23c1.48,0,1.88-1.4,1.88-2.83,0-1.21-.33-2.92-1.92-2.92-1.46,0-1.96,1.4-1.96,2.82s.31,2.93,2,2.93Z"/><path class="uuid-ebbf556b-647b-4778-836b-24bbc44343c0" d="m116.22,18.53c0-.77-.65-1.04-1.5-1.26-1.1-.3-2.26-.75-2.26-2.27s1.11-2.33,2.78-2.33c.75,0,1.63.14,2.23.43v1.87l-1.15.08v-.77c0-.2-.02-.3-.21-.36-.18-.05-.57-.1-.84-.1-.64,0-1.29.23-1.29,1.01s.64.99,1.56,1.27c1.1.35,2.23.75,2.23,2.31s-1.06,2.45-2.95,2.45c-.82,0-1.71-.11-2.36-.4v-1.93l1.15-.1v.81c0,.2.04.3.21.36.19.06.61.11.94.11.77,0,1.46-.25,1.46-1.18Z"/><path class="uuid-ebbf556b-647b-4778-836b-24bbc44343c0" d="m121.15,19.83l.36-.05c.2-.02.3-.08.3-.35v-5.64l-.63-.05v-.94h3.21c2.27,0,3.73,1.2,3.73,3.68,0,3.12-1.75,4.24-3.67,4.24h-3.3v-.89Zm2.11-.18h1.07c1.49,0,2.32-.94,2.32-2.96,0-2.26-1.04-2.82-2.33-2.82h-1.06v5.78Z"/><path class="uuid-ebbf556b-647b-4778-836b-24bbc44343c0" d="m128.68,20.72v-.89l.29-.04c.27-.04.33-.17.4-.37l1.93-5.61-.62-.07v-.94h2.59l2.46,6.93.61.05v.94h-2.83v-.89l.39-.05c.23-.02.3-.13.21-.37l-.33-.94h-2.71l-.43,1.27.61.04v.94h-2.57Zm2.63-3.25h2.24l-1.1-3.37h-.04l-1.11,3.37Z"/><path class="uuid-ebbf556b-647b-4778-836b-24bbc44343c0" d="m139.41,19.83l.27-.04c.32-.04.38-.08.38-.4v-5.59l-.63-.05v-.94h5.42v1.83l-1.15.1v-.56c0-.21-.07-.31-.31-.31h-1.87v2.26h2.84v1.1h-2.84v2.44h2c.24,0,.29-.08.29-.32v-.62l1.15.1v1.9h-5.55v-.89Z"/><path class="uuid-ebbf556b-647b-4778-836b-24bbc44343c0" d="m145.94,19.83l.36-.05c.2-.02.3-.08.3-.35v-5.64l-.63-.05v-.94h3.21c2.27,0,3.73,1.2,3.73,3.68,0,3.12-1.75,4.24-3.67,4.24h-3.3v-.89Zm2.11-.18h1.07c1.49,0,2.32-.94,2.32-2.96,0-2.26-1.04-2.82-2.33-2.82h-1.06v5.78Z"/><path class="uuid-ebbf556b-647b-4778-836b-24bbc44343c0" d="m160.47,18.4c0,1.56-1.21,2.46-2.99,2.46-1.95,0-2.98-.79-2.98-2.67v-4.4l-.63-.05v-.94h2.74v.9l-.37.04c-.2.02-.29.08-.29.36v4.11c0,1.19.67,1.55,1.61,1.55s1.53-.48,1.53-1.49v-4.49l-.59-.04v-.94h2.62v.9l-.35.04c-.21.02-.31.08-.31.36v4.3Z"/><path class="uuid-ebbf556b-647b-4778-836b-24bbc44343c0" d="m165.89,13.83c-1.52,0-2.32,1.04-2.32,2.82s.65,3.03,2.38,3.03c.26,0,.64-.04.86-.1.19-.06.23-.15.23-.36v-.86l1.15.08v1.93c-.58.31-1.45.48-2.34.48-2.39,0-3.77-1.34-3.77-4.07,0-3.09,1.86-4.13,3.73-4.13.75,0,1.65.14,2.31.46v1.9l-1.15.08v-.83c0-.2-.02-.3-.21-.36-.2-.06-.57-.1-.84-.1Z"/><path class="uuid-ebbf556b-647b-4778-836b-24bbc44343c0" d="m169.51,20.72v-.89l.29-.04c.27-.04.33-.17.4-.37l1.93-5.61-.62-.07v-.94h2.59l2.46,6.93.61.05v.94h-2.83v-.89l.39-.05c.23-.02.3-.13.21-.37l-.33-.94h-2.71l-.43,1.27.61.04v.94h-2.57Zm2.63-3.25h2.24l-1.1-3.37h-.04l-1.11,3.37Z"/><path class="uuid-ebbf556b-647b-4778-836b-24bbc44343c0" d="m181.04,13.83c-1.52,0-2.32,1.04-2.32,2.82s.65,3.03,2.38,3.03c.26,0,.64-.04.86-.1.19-.06.23-.15.23-.36v-.86l1.15.08v1.93c-.56.3-1.37.45-2.21.48l-.14.44c.62.04,1.07.32,1.07.93,0,.84-.73,1.12-1.4,1.12-.39,0-.8-.1-1.07-.21l.19-.64c.18.06.52.15.8.15.43,0,.59-.17.59-.4,0-.35-.44-.4-1.07-.4l.35-1.01c-2.05-.19-3.21-1.52-3.21-4.03,0-3.09,1.86-4.13,3.73-4.13.75,0,1.65.14,2.31.46v1.9l-1.15.08v-.83c0-.2-.02-.3-.21-.36-.2-.06-.57-.1-.84-.1Z"/><path class="uuid-ebbf556b-647b-4778-836b-24bbc44343c0" d="m184.66,20.72v-.89l.29-.04c.27-.04.33-.17.4-.37l1.93-5.61-.62-.07v-.94h2.59l2.46,6.93.61.05v.94h-2.83v-.89l.39-.05c.23-.02.3-.13.21-.37l-.33-.94h-2.71l-.43,1.27.61.04v.94h-2.57Zm1.54-9.01c.33-.74.74-1,1.19-1,.56,0,1.15.33,1.57.33.25,0,.43-.13.56-.37l.61.33c-.24.69-.62.99-1.15.99s-1.13-.32-1.57-.32c-.27,0-.42.1-.62.35l-.58-.31Zm1.1,5.76h2.24l-1.1-3.37h-.04l-1.11,3.37Z"/><path class="uuid-ebbf556b-647b-4778-836b-24bbc44343c0" d="m196.05,20.88c-2.13,0-3.4-1.39-3.4-4.09,0-3.06,1.84-4.12,3.55-4.12,1.79,0,3.33,1.08,3.33,4.12,0,2.71-1.36,4.09-3.47,4.09Zm.09-1.23c1.48,0,1.88-1.4,1.88-2.83,0-1.21-.33-2.92-1.92-2.92-1.46,0-1.96,1.4-1.96,2.82s.31,2.93,2,2.93Z"/><path class="uuid-ebbf556b-647b-4778-836b-24bbc44343c0" d="m66.27,44.52l.89-.09c.46-.03.66-.23.66-.75v-11.85l-1.56-.12v-3.23h8.62c5.88,0,9.63,2.77,9.63,8.96,0,7.44-4.61,10.2-9.54,10.2h-8.7v-3.14Zm7.55-.98h.89c2.42,0,3.8-1.33,3.8-5.68,0-4.73-1.87-5.36-3.78-5.36h-.92v11.04Z"/><path class="uuid-ebbf556b-647b-4778-836b-24bbc44343c0" d="m85.93,47.66v-3.14l.81-.09c.52-.06.75-.32.89-.81l3.75-11.79-1.56-.12v-3.23h9.22l5.45,15.79,1.41.14v3.23h-9.11v-3.14l.86-.09c.52-.06.46-.43.37-.78l-.14-.49h-4.52l-.38,1.21,1.41.09v3.2h-8.47Zm8.07-8.13h3.29l-1.53-5.71h-.17l-1.59,5.71Z"/><path class="uuid-ebbf556b-647b-4778-836b-24bbc44343c0" d="m124.2,41.93h.12l2.8-10.12-1.44-.14v-3.17h8.13v3.14l-.69.06c-.43.03-.69.26-.89.89l-4.58,15.07h-7.15l-5.13-15.74-1.41-.2v-3.23h9.22v3.17l-.95.12c-.4.03-.69.29-.52.89l2.51,9.25Z"/><path class="uuid-ebbf556b-647b-4778-836b-24bbc44343c0" d="m137.48,31.78l-1.59-.12v-3.17h9.25v3.14l-.98.09c-.49.06-.66.2-.66.86v11.73l1.59.12v3.23h-9.25v-3.17l.98-.09c.55-.06.66-.23.66-.95v-11.67Z"/><path class="uuid-ebbf556b-647b-4778-836b-24bbc44343c0" d="m165.95,47.66h-5.1l-5.88-9.86h-.12v6.57l1.7.12v3.17h-8.88v-3.14l.98-.09c.49-.06.66-.2.66-.86v-11.79l-1.53-.12v-3.17h6.92l5.65,9.77h.09v-6.48l-1.7-.12v-3.17h8.85v3.14l-.98.09c-.49.06-.66.2-.66.86v15.07Z"/><path class="uuid-ebbf556b-647b-4778-836b-24bbc44343c0" d="m178.98,32.68c-2.28,0-3.63,1.53-3.63,5.33,0,2.85.95,5.48,3.75,5.48.43,0,.84-.03,1.18-.12.32-.09.46-.32.46-.75v-1.73l4.24.26v5.71c-1.67.84-3.78,1.18-6.17,1.18-6.11,0-9.6-3.43-9.6-9.74,0-7.64,4.78-10.17,9.48-10.17,2.57,0,4.93.58,6.28,1.27v5.39l-4.24.26v-1.5c0-.37-.03-.61-.35-.69-.55-.14-1.1-.17-1.41-.17Z"/><path class="uuid-ebbf556b-647b-4778-836b-24bbc44343c0" d="m189.95,31.78l-1.59-.12v-3.17h9.25v3.14l-.98.09c-.49.06-.66.2-.66.86v11.73l1.59.12v3.23h-9.25v-3.17l.98-.09c.55-.06.66-.23.66-.95v-11.67Z"/></g></svg>